<?xml version="1.0" encoding="UTF-8"?>
<!DOCTYPE svg PUBLIC "-//W3C//DTD SVG 1.1//EN" "http://www.w3.org/Graphics/SVG/1.1/DTD/svg11.dtd">
<svg xmlns="http://www.w3.org/2000/svg" version="1.1" width="6421px" height="1809px" style="shape-rendering:geometricPrecision; text-rendering:geometricPrecision; image-rendering:optimizeQuality; fill-rule:evenodd; clip-rule:evenodd" xmlns:xlink="http://www.w3.org/1999/xlink">
<g><path style="opacity:0.863" fill="#23709a" d="M 416.5,134.5 C 313.999,134.167 211.665,134.501 109.5,135.5C 108.957,135.44 108.624,135.107 108.5,134.5C 211.333,133.168 313.999,133.168 416.5,134.5 Z"/></g>
<g><path style="opacity:0.816" fill="#2b61b8" d="M 673.5,134.5 C 776.001,133.168 878.667,133.168 981.5,134.5C 981.376,135.107 981.043,135.44 980.5,135.5C 893.335,134.501 806.002,134.167 718.5,134.5C 703.5,134.5 688.5,134.5 673.5,134.5 Z"/></g>
<g><path style="opacity:0.816" fill="#2e67bc" d="M 2041.5,134.5 C 1985.5,134.5 1929.5,134.5 1873.5,134.5C 1823.5,134.5 1773.5,134.5 1723.5,134.5C 1632.83,134.5 1542.17,134.5 1451.5,134.5C 1418.5,134.5 1385.5,134.5 1352.5,134.5C 1291.5,134.5 1230.5,134.5 1169.5,134.5C 1169.5,199.167 1169.5,263.833 1169.5,328.5C 1168.5,263.669 1168.17,198.669 1168.5,133.5C 1459.67,133.167 1750.67,133.5 2041.5,134.5 Z"/></g>
<g><path style="opacity:0.816" fill="#2969bf" d="M 2966.5,135.5 C 2869.51,134.524 2772.51,134.19 2675.5,134.5C 2662.83,134.5 2650.17,134.5 2637.5,134.5C 2544.17,134.5 2450.83,134.5 2357.5,134.5C 2325.83,134.5 2294.17,134.5 2262.5,134.5C 2247.5,134.5 2232.5,134.5 2217.5,134.5C 2217.83,376.667 2217.5,618.667 2216.5,860.5C 2216.5,618.167 2216.5,375.833 2216.5,133.5C 2463.5,133.333 2710.5,133.5 2957.5,134C 2960.69,134.181 2963.69,134.681 2966.5,135.5 Z"/></g>
<g><path style="opacity:0.816" fill="#3172c5" d="M 4145.5,328.5 C 4145.5,263.833 4145.5,199.167 4145.5,134.5C 4096.17,134.5 4046.83,134.5 3997.5,134.5C 3939.5,134.5 3881.5,134.5 3823.5,134.5C 3775.83,134.5 3728.17,134.5 3680.5,134.5C 3620.83,134.5 3561.17,134.5 3501.5,134.5C 3483.83,134.5 3466.17,134.5 3448.5,134.5C 3431.15,134.326 3413.82,134.659 3396.5,135.5C 3399.31,134.681 3402.31,134.181 3405.5,134C 3652.5,133.5 3899.5,133.333 4146.5,133.5C 4146.83,198.669 4146.5,263.669 4145.5,328.5 Z"/></g>
<g><path style="opacity:0.816" fill="#317acd" d="M 5045.5,134.5 C 5085.66,133.335 5126,133.169 5166.5,134C 5169.69,134.181 5172.69,134.681 5175.5,135.5C 5160.18,134.686 5144.85,134.352 5129.5,134.5C 5101.5,134.5 5073.5,134.5 5045.5,134.5 Z"/></g>
<g><path style="opacity:0.816" fill="#347cce" d="M 5611.5,134.5 C 5858.33,133.5 6105.33,133.167 6352.5,133.5C 6352.83,198.669 6352.5,263.669 6351.5,328.5C 6351.5,263.833 6351.5,199.167 6351.5,134.5C 6278.5,134.5 6205.5,134.5 6132.5,134.5C 6091.17,134.5 6049.83,134.5 6008.5,134.5C 5925.17,134.5 5841.83,134.5 5758.5,134.5C 5735.83,134.5 5713.17,134.5 5690.5,134.5C 5664.17,134.5 5637.83,134.5 5611.5,134.5 Z"/></g>
<g><path style="opacity:1" fill="#0f9c58" d="M 416.5,134.5 C 416.427,136.027 417.094,137.027 418.5,137.5C 419.08,139.749 420.413,141.415 422.5,142.5C 422.738,144.404 423.738,145.738 425.5,146.5C 426.08,148.749 427.413,150.415 429.5,151.5C 429.738,153.404 430.738,154.738 432.5,155.5C 433.08,157.749 434.413,159.415 436.5,160.5C 436.738,162.404 437.738,163.738 439.5,164.5C 440.08,166.749 441.413,168.415 443.5,169.5C 443.738,171.404 444.738,172.738 446.5,173.5C 447.08,175.749 448.413,177.415 450.5,178.5C 450.738,180.404 451.738,181.738 453.5,182.5C 454.08,184.749 455.413,186.415 457.5,187.5C 457.738,189.404 458.738,190.738 460.5,191.5C 461.08,193.749 462.413,195.415 464.5,196.5C 464.738,198.404 465.738,199.738 467.5,200.5C 468.08,202.749 469.413,204.415 471.5,205.5C 471.738,207.404 472.738,208.738 474.5,209.5C 475.08,211.749 476.413,213.415 478.5,214.5C 478.738,216.404 479.738,217.738 481.5,218.5C 482.08,220.749 483.413,222.415 485.5,223.5C 485.738,225.404 486.738,226.738 488.5,227.5C 489.08,229.749 490.413,231.415 492.5,232.5C 492.738,234.404 493.738,235.738 495.5,236.5C 496.08,238.749 497.413,240.415 499.5,241.5C 499.738,243.404 500.738,244.738 502.5,245.5C 503.08,247.749 504.413,249.415 506.5,250.5C 506.738,252.404 507.738,253.738 509.5,254.5C 510.08,256.749 511.413,258.415 513.5,259.5C 513.738,261.404 514.738,262.738 516.5,263.5C 517.08,265.749 518.413,267.415 520.5,268.5C 520.738,270.404 521.738,271.738 523.5,272.5C 524.08,274.749 525.413,276.415 527.5,277.5C 527.738,279.404 528.738,280.738 530.5,281.5C 531.08,283.749 532.413,285.415 534.5,286.5C 534.738,288.404 535.738,289.738 537.5,290.5C 538.08,292.749 539.413,294.415 541.5,295.5C 541.738,297.404 542.738,298.738 544.5,299.5C 595.509,365.507 646.509,431.507 697.5,497.5C 646.509,563.493 595.509,629.493 544.5,695.5C 501.833,750.5 459.167,805.5 416.5,860.5C 313.999,860.833 211.665,860.499 109.5,859.5C 203.143,738.852 296.809,618.185 390.5,497.5C 296.809,376.815 203.143,256.148 109.5,135.5C 211.665,134.501 313.999,134.167 416.5,134.5 Z"/></g>
<g><path style="opacity:1" fill="#0240a4" d="M 718.5,134.5 C 806.002,134.167 893.335,134.501 980.5,135.5C 893.518,247.811 806.184,359.811 718.5,471.5C 718.5,359.167 718.5,246.833 718.5,134.5 Z"/></g>
<g><path style="opacity:1" fill="#0448ab" d="M 1352.5,134.5 C 1352.5,199.167 1352.5,263.833 1352.5,328.5C 1291.5,328.5 1230.5,328.5 1169.5,328.5C 1169.5,263.833 1169.5,199.167 1169.5,134.5C 1230.5,134.5 1291.5,134.5 1352.5,134.5 Z"/></g>
<g><path style="opacity:1" fill="#054bad" d="M 1352.5,134.5 C 1385.5,134.5 1418.5,134.5 1451.5,134.5C 1451.5,199.167 1451.5,263.833 1451.5,328.5C 1418.5,328.5 1385.5,328.5 1352.5,328.5C 1352.5,263.833 1352.5,199.167 1352.5,134.5 Z"/></g>
<g><path style="opacity:0.999" fill="#054fb0" d="M 1451.5,134.5 C 1542.17,134.5 1632.83,134.5 1723.5,134.5C 1723.5,376.833 1723.5,619.167 1723.5,861.5C 1643.5,861.5 1563.5,861.5 1483.5,861.5C 1483.5,683.833 1483.5,506.167 1483.5,328.5C 1472.83,328.5 1462.17,328.5 1451.5,328.5C 1451.5,263.833 1451.5,199.167 1451.5,134.5 Z"/></g>
<g><path style="opacity:0.987" fill="#0652b3" d="M 1723.5,134.5 C 1773.5,134.5 1823.5,134.5 1873.5,134.5C 1873.5,199.167 1873.5,263.833 1873.5,328.5C 1824.5,328.5 1775.5,328.5 1726.5,328.5C 1726.5,506.167 1726.5,683.833 1726.5,861.5C 1725.5,861.5 1724.5,861.5 1723.5,861.5C 1723.5,619.167 1723.5,376.833 1723.5,134.5 Z"/></g>
<g><path style="opacity:1" fill="#0755b6" d="M 1873.5,134.5 C 1929.5,134.5 1985.5,134.5 2041.5,134.5C 2041.5,199.167 2041.5,263.833 2041.5,328.5C 1985.5,328.5 1929.5,328.5 1873.5,328.5C 1873.5,263.833 1873.5,199.167 1873.5,134.5 Z"/></g>
<g><path style="opacity:0.999" fill="#085bbb" d="M 2262.5,134.5 C 2262.5,376.833 2262.5,619.167 2262.5,861.5C 2246.99,861.83 2231.66,861.496 2216.5,860.5C 2217.5,618.667 2217.83,376.667 2217.5,134.5C 2232.5,134.5 2247.5,134.5 2262.5,134.5 Z"/></g>
<g><path style="opacity:0.999" fill="#085cbc" d="M 2262.5,134.5 C 2294.17,134.5 2325.83,134.5 2357.5,134.5C 2357.5,376.833 2357.5,619.167 2357.5,861.5C 2325.83,861.5 2294.17,861.5 2262.5,861.5C 2262.5,619.167 2262.5,376.833 2262.5,134.5 Z"/></g>
<g><path style="opacity:0.999" fill="#085fbe" d="M 2357.5,134.5 C 2450.83,134.5 2544.17,134.5 2637.5,134.5C 2637.5,199.167 2637.5,263.833 2637.5,328.5C 2578.17,328.5 2518.83,328.5 2459.5,328.5C 2458.5,360.662 2458.17,392.996 2458.5,425.5C 2518.17,425.5 2577.83,425.5 2637.5,425.5C 2637.83,491.669 2637.5,557.669 2636.5,623.5C 2635.19,622.855 2634.19,621.855 2633.5,620.5C 2575.5,619.5 2517.5,619.167 2459.5,619.5C 2459.5,700.167 2459.5,780.833 2459.5,861.5C 2425.5,861.5 2391.5,861.5 2357.5,861.5C 2357.5,619.167 2357.5,376.833 2357.5,134.5 Z"/></g>
<g><path style="opacity:1" fill="#0962c2" d="M 2637.5,134.5 C 2650.17,134.5 2662.83,134.5 2675.5,134.5C 2675.5,199.167 2675.5,263.833 2675.5,328.5C 2662.83,328.5 2650.17,328.5 2637.5,328.5C 2637.5,263.833 2637.5,199.167 2637.5,134.5 Z"/></g>
<g><path style="opacity:0.999" fill="#0a66c4" d="M 2675.5,134.5 C 2772.51,134.19 2869.51,134.524 2966.5,135.5C 2982.44,137.234 2997.44,141.9 3011.5,149.5C 3012.5,300.46 3012.83,451.46 3012.5,602.5C 2998.25,610.529 2982.91,615.696 2966.5,618C 2940.53,619.246 2914.53,619.913 2888.5,620C 2955.86,699.889 3022.86,780.056 3089.5,860.5C 3004.83,861.833 2920.17,861.833 2835.5,860.5C 2781.81,796.481 2728.14,732.481 2674.5,668.5C 2675.5,587.668 2675.83,506.668 2675.5,425.5C 2662.83,425.5 2650.17,425.5 2637.5,425.5C 2577.83,425.5 2518.17,425.5 2458.5,425.5C 2458.17,392.996 2458.5,360.662 2459.5,328.5C 2459.5,360.5 2459.5,392.5 2459.5,424.5C 2588.5,424.5 2717.5,424.5 2846.5,424.5C 2846.5,392.5 2846.5,360.5 2846.5,328.5C 2789.5,328.5 2732.5,328.5 2675.5,328.5C 2675.5,263.833 2675.5,199.167 2675.5,134.5 Z M 2459.5,328.5 C 2518.83,328.5 2578.17,328.5 2637.5,328.5C 2650.17,328.5 2662.83,328.5 2675.5,328.5C 2732.5,328.5 2789.5,328.5 2846.5,328.5C 2846.5,360.5 2846.5,392.5 2846.5,424.5C 2717.5,424.5 2588.5,424.5 2459.5,424.5C 2459.5,392.5 2459.5,360.5 2459.5,328.5 Z"/></g>
<g><path style="opacity:0.999" fill="#0c71cd" d="M 3448.5,134.5 C 3448.5,376.833 3448.5,619.167 3448.5,861.5C 3425.98,862.517 3403.64,861.017 3381.5,857C 3375.15,855.496 3369.15,853.329 3363.5,850.5C 3363.83,614.999 3363.5,379.666 3362.5,144.5C 3373.2,139.497 3384.53,136.497 3396.5,135.5C 3413.82,134.659 3431.15,134.326 3448.5,134.5 Z"/></g>
<g><path style="opacity:0.999" fill="#0c72cf" d="M 3448.5,134.5 C 3466.17,134.5 3483.83,134.5 3501.5,134.5C 3501.5,376.833 3501.5,619.167 3501.5,861.5C 3483.83,861.5 3466.17,861.5 3448.5,861.5C 3448.5,619.167 3448.5,376.833 3448.5,134.5 Z"/></g>
<g><path style="opacity:0.999" fill="#0d74d0" d="M 3501.5,134.5 C 3561.17,134.5 3620.83,134.5 3680.5,134.5C 3680.5,199.167 3680.5,263.833 3680.5,328.5C 3625.83,328.5 3571.17,328.5 3516.5,328.5C 3516.5,352.5 3516.5,376.5 3516.5,400.5C 3690.5,400.5 3864.5,400.5 4038.5,400.5C 4038.83,465.335 4038.5,530.002 4037.5,594.5C 4037.83,529.998 4037.5,465.665 4036.5,401.5C 4023.5,401.5 4010.5,401.5 3997.5,401.5C 3939.5,401.5 3881.5,401.5 3823.5,401.5C 3775.83,401.5 3728.17,401.5 3680.5,401.5C 3680.5,465.5 3680.5,529.5 3680.5,593.5C 3715.5,593.5 3750.5,593.5 3785.5,593.5C 3785.5,593.833 3785.5,594.167 3785.5,594.5C 3695.83,594.5 3606.17,594.5 3516.5,594.5C 3515.5,618.328 3515.17,642.328 3515.5,666.5C 3570.5,666.5 3625.5,666.5 3680.5,666.5C 3680.5,731.5 3680.5,796.5 3680.5,861.5C 3620.83,861.5 3561.17,861.5 3501.5,861.5C 3501.5,619.167 3501.5,376.833 3501.5,134.5 Z"/></g>
<g><path style="opacity:1" fill="#0d77d3" d="M 3680.5,134.5 C 3728.17,134.5 3775.83,134.5 3823.5,134.5C 3823.5,199.167 3823.5,263.833 3823.5,328.5C 3775.83,328.5 3728.17,328.5 3680.5,328.5C 3680.5,263.833 3680.5,199.167 3680.5,134.5 Z"/></g>
<g><path style="opacity:1" fill="#0e7ad5" d="M 3823.5,134.5 C 3881.5,134.5 3939.5,134.5 3997.5,134.5C 3997.5,199.167 3997.5,263.833 3997.5,328.5C 3939.5,328.5 3881.5,328.5 3823.5,328.5C 3823.5,263.833 3823.5,199.167 3823.5,134.5 Z"/></g>
<g><path style="opacity:1" fill="#0e7dd8" d="M 3997.5,134.5 C 4046.83,134.5 4096.17,134.5 4145.5,134.5C 4145.5,199.167 4145.5,263.833 4145.5,328.5C 4096.17,328.5 4046.83,328.5 3997.5,328.5C 3997.5,263.833 3997.5,199.167 3997.5,134.5 Z"/></g>
<g><path style="opacity:0.999" fill="#1085de" d="M 4581.5,134.5 C 4578.5,134.5 4575.5,134.5 4572.5,134.5C 4572.33,250.167 4572.5,365.834 4573,481.5C 4574.04,482.244 4574.54,483.244 4574.5,484.5C 4573.88,484.389 4573.38,484.056 4573,483.5C 4572.5,609.5 4572.33,735.5 4572.5,861.5C 4504.17,861.5 4435.83,861.5 4367.5,861.5C 4367.33,634.5 4367.5,407.5 4368,180.5C 4371.04,177.631 4373.87,174.631 4376.5,171.5C 4399.82,149.014 4427.82,136.514 4460.5,134C 4501,133.169 4541.34,133.335 4581.5,134.5 Z"/></g>
<g><path style="opacity:1" fill="#1188e1" d="M 4581.5,134.5 C 4617.25,188.984 4652.25,243.984 4686.5,299.5C 4685.88,299.389 4685.38,299.056 4685,298.5C 4684.17,418.873 4684.34,539.207 4685.5,659.5C 4647.75,601.682 4610.75,543.349 4574.5,484.5C 4574.54,483.244 4574.04,482.244 4573,481.5C 4572.5,365.834 4572.33,250.167 4572.5,134.5C 4575.5,134.5 4578.5,134.5 4581.5,134.5 Z"/></g>
<g><path style="opacity:0.999" fill="#1290e8" d="M 5045.5,134.5 C 5073.5,134.5 5101.5,134.5 5129.5,134.5C 5129.5,376.833 5129.5,619.167 5129.5,861.5C 5104.59,861.828 5079.76,861.494 5055,860.5C 5054.67,734.833 5054.33,609.167 5054,483.5C 5037.64,510.237 5020.81,536.57 5003.5,562.5C 5003.5,441.833 5003.5,321.167 5003.5,200.5C 5017,178.153 5031,156.153 5045.5,134.5 Z"/></g>
<g><path style="opacity:0.995" fill="#1393ea" d="M 5129.5,134.5 C 5144.85,134.352 5160.18,134.686 5175.5,135.5C 5206.09,139.795 5232.42,152.629 5254.5,174C 5283.26,201.588 5298.1,235.421 5299,275.5C 5299.5,470.833 5299.67,666.166 5299.5,861.5C 5242.83,861.5 5186.17,861.5 5129.5,861.5C 5129.5,619.167 5129.5,376.833 5129.5,134.5 Z"/></g>
<g><path style="opacity:0.997" fill="#149af0" d="M 5611.5,134.5 C 5637.83,134.5 5664.17,134.5 5690.5,134.5C 5690.5,376.833 5690.5,619.167 5690.5,861.5C 5665.5,861.667 5640.5,861.5 5615.5,861C 5554.77,855.264 5512.27,824.43 5488,768.5C 5484.07,757.462 5481.41,746.129 5480,734.5C 5478.36,582.178 5478.03,429.845 5479,277.5C 5481.8,214.731 5511.63,170.231 5568.5,144C 5582.28,138.343 5596.62,135.177 5611.5,134.5 Z"/></g>
<g><path style="opacity:0.999" fill="#159df2" d="M 5690.5,134.5 C 5713.17,134.5 5735.83,134.5 5758.5,134.5C 5758.5,199.167 5758.5,263.833 5758.5,328.5C 5746.5,328.5 5734.5,328.5 5722.5,328.5C 5721.5,352.661 5721.17,376.994 5721.5,401.5C 5733.83,401.5 5746.17,401.5 5758.5,401.5C 5758.5,465.5 5758.5,529.5 5758.5,593.5C 5841.83,593.5 5925.17,593.5 6008.5,593.5C 6049.83,593.5 6091.17,593.5 6132.5,593.5C 6169.17,593.5 6205.83,593.5 6242.5,593.5C 6242.5,593.833 6242.5,594.167 6242.5,594.5C 6069.17,594.5 5895.83,594.5 5722.5,594.5C 5721.5,618.328 5721.17,642.328 5721.5,666.5C 5733.83,666.5 5746.17,666.5 5758.5,666.5C 5758.5,731.5 5758.5,796.5 5758.5,861.5C 5735.83,861.5 5713.17,861.5 5690.5,861.5C 5690.5,619.167 5690.5,376.833 5690.5,134.5 Z"/></g>
<g><path style="opacity:1" fill="#15a0f5" d="M 5758.5,134.5 C 5841.83,134.5 5925.17,134.5 6008.5,134.5C 6008.5,199.167 6008.5,263.833 6008.5,328.5C 5925.17,328.5 5841.83,328.5 5758.5,328.5C 5758.5,263.833 5758.5,199.167 5758.5,134.5 Z"/></g>
<g><path style="opacity:1" fill="#16a3f8" d="M 6008.5,134.5 C 6049.83,134.5 6091.17,134.5 6132.5,134.5C 6132.5,199.167 6132.5,263.833 6132.5,328.5C 6091.17,328.5 6049.83,328.5 6008.5,328.5C 6008.5,263.833 6008.5,199.167 6008.5,134.5 Z"/></g>
<g><path style="opacity:1" fill="#16a6fb" d="M 6132.5,134.5 C 6205.5,134.5 6278.5,134.5 6351.5,134.5C 6351.5,199.167 6351.5,263.833 6351.5,328.5C 6278.5,328.5 6205.5,328.5 6132.5,328.5C 6132.5,263.833 6132.5,199.167 6132.5,134.5 Z"/></g>
<g><path style="opacity:0.914" fill="#2c739d" d="M 416.5,134.5 C 417.906,134.973 418.573,135.973 418.5,137.5C 417.094,137.027 416.427,136.027 416.5,134.5 Z"/></g>
<g><path style="opacity:0.796" fill="#2e769a" d="M 418.5,137.5 C 420.587,138.585 421.92,140.251 422.5,142.5C 420.413,141.415 419.08,139.749 418.5,137.5 Z"/></g>
<g><path style="opacity:1" fill="#2e7993" d="M 422.5,142.5 C 424.262,143.262 425.262,144.596 425.5,146.5C 423.738,145.738 422.738,144.404 422.5,142.5 Z"/></g>
<g><path style="opacity:0.999" fill="#0c6fcc" d="M 3362.5,144.5 C 3363.5,379.666 3363.83,614.999 3363.5,850.5C 3321.3,832.796 3293.13,802.13 3279,758.5C 3276.69,749.955 3275.02,741.289 3274,732.5C 3273.33,575.833 3273.33,419.167 3274,262.5C 3280.61,212.428 3305.77,174.928 3349.5,150C 3353.65,147.673 3357.99,145.84 3362.5,144.5 Z"/></g>
<g><path style="opacity:0.796" fill="#2e769a" d="M 425.5,146.5 C 427.587,147.585 428.92,149.251 429.5,151.5C 427.413,150.415 426.08,148.749 425.5,146.5 Z"/></g>
<g><path style="opacity:1" fill="#0b6ac7" d="M 3011.5,149.5 C 3024.81,155.985 3036.48,164.652 3046.5,175.5C 3046.5,309.167 3046.5,442.833 3046.5,576.5C 3036.62,587.104 3025.28,595.77 3012.5,602.5C 3012.83,451.46 3012.5,300.46 3011.5,149.5 Z"/></g>
<g><path style="opacity:1" fill="#2e7993" d="M 429.5,151.5 C 431.262,152.262 432.262,153.596 432.5,155.5C 430.738,154.738 429.738,153.404 429.5,151.5 Z"/></g>
<g><path style="opacity:0.796" fill="#2e769a" d="M 432.5,155.5 C 434.587,156.585 435.92,158.251 436.5,160.5C 434.413,159.415 433.08,157.749 432.5,155.5 Z"/></g>
<g><path style="opacity:1" fill="#2e7993" d="M 436.5,160.5 C 438.262,161.262 439.262,162.596 439.5,164.5C 437.738,163.738 436.738,162.404 436.5,160.5 Z"/></g>
<g><path style="opacity:0.796" fill="#2e769a" d="M 439.5,164.5 C 441.587,165.585 442.92,167.251 443.5,169.5C 441.413,168.415 440.08,166.749 439.5,164.5 Z"/></g>
<g><path style="opacity:1" fill="#2e7993" d="M 443.5,169.5 C 445.262,170.262 446.262,171.596 446.5,173.5C 444.738,172.738 443.738,171.404 443.5,169.5 Z"/></g>
<g><path style="opacity:0.796" fill="#2e769a" d="M 446.5,173.5 C 448.587,174.585 449.92,176.251 450.5,178.5C 448.413,177.415 447.08,175.749 446.5,173.5 Z"/></g>
<g><path style="opacity:1" fill="#0b6bc8" d="M 3046.5,175.5 C 3072.51,200.876 3086.68,231.876 3089,268.5C 3089.67,340.5 3089.67,412.5 3089,484.5C 3086.39,520.713 3072.22,551.379 3046.5,576.5C 3046.5,442.833 3046.5,309.167 3046.5,175.5 Z"/></g>
<g><path style="opacity:1" fill="#2e7993" d="M 450.5,178.5 C 452.262,179.262 453.262,180.596 453.5,182.5C 451.738,181.738 450.738,180.404 450.5,178.5 Z"/></g>
<g><path style="opacity:0.999" fill="#1082dc" d="M 4376.5,171.5 C 4373.87,174.631 4371.04,177.631 4368,180.5C 4367.5,407.5 4367.33,634.5 4367.5,861.5C 4354.32,861.829 4341.32,861.495 4328.5,860.5C 4329.18,658.658 4329.84,456.658 4330.5,254.5C 4335.45,221.744 4350.11,194.244 4374.5,172C 4375.09,171.536 4375.76,171.369 4376.5,171.5 Z"/></g>
<g><path style="opacity:0.796" fill="#2e769a" d="M 453.5,182.5 C 455.587,183.585 456.92,185.251 457.5,187.5C 455.413,186.415 454.08,184.749 453.5,182.5 Z"/></g>
<g><path style="opacity:1" fill="#2e7a93" d="M 457.5,187.5 C 459.262,188.262 460.262,189.596 460.5,191.5C 458.738,190.738 457.738,189.404 457.5,187.5 Z"/></g>
<g><path style="opacity:0.796" fill="#2e769a" d="M 460.5,191.5 C 462.587,192.585 463.92,194.251 464.5,196.5C 462.413,195.415 461.08,193.749 460.5,191.5 Z"/></g>
<g><path style="opacity:1" fill="#2e7a93" d="M 464.5,196.5 C 466.262,197.262 467.262,198.596 467.5,200.5C 465.738,199.738 464.738,198.404 464.5,196.5 Z"/></g>
<g><path style="opacity:0.999" fill="#118ce4" d="M 5003.5,200.5 C 5003.5,321.167 5003.5,441.833 5003.5,562.5C 4940.85,662.448 4877.69,762.115 4814,861.5C 4770.52,794.533 4727.69,727.2 4685.5,659.5C 4684.34,539.207 4684.17,418.873 4685,298.5C 4685.38,299.056 4685.88,299.389 4686.5,299.5C 4728.82,365.472 4771.16,431.472 4813.5,497.5C 4876.86,398.482 4940.19,299.482 5003.5,200.5 Z"/></g>
<g><path style="opacity:0.796" fill="#2e769a" d="M 467.5,200.5 C 469.587,201.585 470.92,203.251 471.5,205.5C 469.413,204.415 468.08,202.749 467.5,200.5 Z"/></g>
<g><path style="opacity:1" fill="#2e7a93" d="M 471.5,205.5 C 473.262,206.262 474.262,207.596 474.5,209.5C 472.738,208.738 471.738,207.404 471.5,205.5 Z"/></g>
<g><path style="opacity:0.796" fill="#2e769a" d="M 474.5,209.5 C 476.587,210.585 477.92,212.251 478.5,214.5C 476.413,213.415 475.08,211.749 474.5,209.5 Z"/></g>
<g><path style="opacity:1" fill="#2e7a93" d="M 478.5,214.5 C 480.262,215.262 481.262,216.596 481.5,218.5C 479.738,217.738 478.738,216.404 478.5,214.5 Z"/></g>
<g><path style="opacity:0.796" fill="#2e769a" d="M 481.5,218.5 C 483.587,219.585 484.92,221.251 485.5,223.5C 483.413,222.415 482.08,220.749 481.5,218.5 Z"/></g>
<g><path style="opacity:1" fill="#2e7a93" d="M 485.5,223.5 C 487.262,224.262 488.262,225.596 488.5,227.5C 486.738,226.738 485.738,225.404 485.5,223.5 Z"/></g>
<g><path style="opacity:0.796" fill="#2e769a" d="M 488.5,227.5 C 490.587,228.585 491.92,230.251 492.5,232.5C 490.413,231.415 489.08,229.749 488.5,227.5 Z"/></g>
<g><path style="opacity:1" fill="#2e7a93" d="M 492.5,232.5 C 494.262,233.262 495.262,234.596 495.5,236.5C 493.738,235.738 492.738,234.404 492.5,232.5 Z"/></g>
<g><path style="opacity:0.796" fill="#2e769a" d="M 495.5,236.5 C 497.587,237.585 498.92,239.251 499.5,241.5C 497.413,240.415 496.08,238.749 495.5,236.5 Z"/></g>
<g><path style="opacity:1" fill="#2e7a93" d="M 499.5,241.5 C 501.262,242.262 502.262,243.596 502.5,245.5C 500.738,244.738 499.738,243.404 499.5,241.5 Z"/></g>
<g><path style="opacity:0.796" fill="#2e769a" d="M 502.5,245.5 C 504.587,246.585 505.92,248.251 506.5,250.5C 504.413,249.415 503.08,247.749 502.5,245.5 Z"/></g>
<g><path style="opacity:1" fill="#2e7a93" d="M 506.5,250.5 C 508.262,251.262 509.262,252.596 509.5,254.5C 507.738,253.738 506.738,252.404 506.5,250.5 Z"/></g>
<g><path style="opacity:0.796" fill="#2d769a" d="M 509.5,254.5 C 511.587,255.585 512.92,257.251 513.5,259.5C 511.413,258.415 510.08,256.749 509.5,254.5 Z"/></g>
<g><path style="opacity:1" fill="#2e7a93" d="M 513.5,259.5 C 515.262,260.262 516.262,261.596 516.5,263.5C 514.738,262.738 513.738,261.404 513.5,259.5 Z"/></g>
<g><path style="opacity:0.796" fill="#2d769b" d="M 516.5,263.5 C 518.587,264.585 519.92,266.251 520.5,268.5C 518.413,267.415 517.08,265.749 516.5,263.5 Z"/></g>
<g><path style="opacity:1" fill="#2e7a93" d="M 520.5,268.5 C 522.262,269.262 523.262,270.596 523.5,272.5C 521.738,271.738 520.738,270.404 520.5,268.5 Z"/></g>
<g><path style="opacity:1" fill="#2779ce" d="M 4330.5,254.5 C 4329.84,456.658 4329.18,658.658 4328.5,860.5C 4328.33,661.166 4328.5,461.833 4329,262.5C 4329.18,259.635 4329.68,256.969 4330.5,254.5 Z"/></g>
<g><path style="opacity:0.796" fill="#2d769b" d="M 523.5,272.5 C 525.587,273.585 526.92,275.251 527.5,277.5C 525.413,276.415 524.08,274.749 523.5,272.5 Z"/></g>
<g><path style="opacity:1" fill="#2e7a93" d="M 527.5,277.5 C 529.262,278.262 530.262,279.596 530.5,281.5C 528.738,280.738 527.738,279.404 527.5,277.5 Z"/></g>
<g><path style="opacity:0.796" fill="#2d769b" d="M 530.5,281.5 C 532.587,282.585 533.92,284.251 534.5,286.5C 532.413,285.415 531.08,283.749 530.5,281.5 Z"/></g>
<g><path style="opacity:1" fill="#2e7a93" d="M 534.5,286.5 C 536.262,287.262 537.262,288.596 537.5,290.5C 535.738,289.738 534.738,288.404 534.5,286.5 Z"/></g>
<g><path style="opacity:0.796" fill="#2d769b" d="M 537.5,290.5 C 539.587,291.585 540.92,293.251 541.5,295.5C 539.413,294.415 538.08,292.749 537.5,290.5 Z"/></g>
<g><path style="opacity:1" fill="#2e7a93" d="M 541.5,295.5 C 543.262,296.262 544.262,297.596 544.5,299.5C 542.738,298.738 541.738,297.404 541.5,295.5 Z"/></g>
<g><path style="opacity:1" fill="#0d77d3" d="M 3823.5,401.5 C 3823.5,465.5 3823.5,529.5 3823.5,593.5C 3810.83,593.5 3798.17,593.5 3785.5,593.5C 3750.5,593.5 3715.5,593.5 3680.5,593.5C 3680.5,529.5 3680.5,465.5 3680.5,401.5C 3728.17,401.5 3775.83,401.5 3823.5,401.5 Z"/></g>
<g><path style="opacity:1" fill="#0e7ad5" d="M 3823.5,401.5 C 3881.5,401.5 3939.5,401.5 3997.5,401.5C 3997.5,465.5 3997.5,529.5 3997.5,593.5C 4010.5,593.5 4023.5,593.5 4036.5,593.5C 4036.5,529.5 4036.5,465.5 4036.5,401.5C 4037.5,465.665 4037.83,529.998 4037.5,594.5C 3953.5,594.5 3869.5,594.5 3785.5,594.5C 3785.5,594.167 3785.5,593.833 3785.5,593.5C 3798.17,593.5 3810.83,593.5 3823.5,593.5C 3823.5,529.5 3823.5,465.5 3823.5,401.5 Z"/></g>
<g><path style="opacity:1" fill="#0e7dd7" d="M 3997.5,401.5 C 4010.5,401.5 4023.5,401.5 4036.5,401.5C 4036.5,465.5 4036.5,529.5 4036.5,593.5C 4023.5,593.5 4010.5,593.5 3997.5,593.5C 3997.5,529.5 3997.5,465.5 3997.5,401.5 Z"/></g>
<g><path style="opacity:1" fill="#15a0f5" d="M 5758.5,401.5 C 5841.83,401.5 5925.17,401.5 6008.5,401.5C 6008.5,465.5 6008.5,529.5 6008.5,593.5C 5925.17,593.5 5841.83,593.5 5758.5,593.5C 5758.5,529.5 5758.5,465.5 5758.5,401.5 Z"/></g>
<g><path style="opacity:1" fill="#16a3f8" d="M 6008.5,401.5 C 6049.83,401.5 6091.17,401.5 6132.5,401.5C 6132.5,465.5 6132.5,529.5 6132.5,593.5C 6091.17,593.5 6049.83,593.5 6008.5,593.5C 6008.5,529.5 6008.5,465.5 6008.5,401.5 Z"/></g>
<g><path style="opacity:1" fill="#16a5fa" d="M 6132.5,401.5 C 6169.17,401.5 6205.83,401.5 6242.5,401.5C 6242.5,465.5 6242.5,529.5 6242.5,593.5C 6205.83,593.5 6169.17,593.5 6132.5,593.5C 6132.5,529.5 6132.5,465.5 6132.5,401.5 Z"/></g>
<g><path style="opacity:1" fill="#2f85d7" d="M 5722.5,328.5 C 5722.5,352.5 5722.5,376.5 5722.5,400.5C 5896.5,400.5 6070.5,400.5 6244.5,400.5C 6245.16,465.509 6244.5,530.175 6242.5,594.5C 6242.5,594.167 6242.5,593.833 6242.5,593.5C 6242.5,529.5 6242.5,465.5 6242.5,401.5C 6205.83,401.5 6169.17,401.5 6132.5,401.5C 6091.17,401.5 6049.83,401.5 6008.5,401.5C 5925.17,401.5 5841.83,401.5 5758.5,401.5C 5746.17,401.5 5733.83,401.5 5721.5,401.5C 5721.17,376.994 5721.5,352.661 5722.5,328.5 Z"/></g>
<g><path style="opacity:1" fill="#0963c1" d="M 2637.5,425.5 C 2650.17,425.5 2662.83,425.5 2675.5,425.5C 2675.83,506.668 2675.5,587.668 2674.5,668.5C 2661.13,654.096 2648.46,639.096 2636.5,623.5C 2637.5,557.669 2637.83,491.669 2637.5,425.5 Z"/></g>
<g><path style="opacity:0.998" fill="#023da1" d="M 673.5,134.5 C 688.5,134.5 703.5,134.5 718.5,134.5C 718.5,246.833 718.5,359.167 718.5,471.5C 712.216,480.13 705.883,488.797 699.5,497.5C 705.933,505.254 711.933,513.254 717.5,521.5C 718.496,634.793 718.829,748.126 718.5,861.5C 703.496,861.667 688.496,861.5 673.5,861C 630.842,805.493 587.842,750.326 544.5,695.5C 595.509,629.493 646.509,563.493 697.5,497.5C 646.509,431.507 595.509,365.507 544.5,299.5C 587.741,244.681 630.741,189.681 673.5,134.5 Z"/></g>
<g><path style="opacity:0.996" fill="#0340a4" d="M 717.5,521.5 C 806.205,633.888 894.205,746.888 981.5,860.5C 893.836,861.5 806.169,861.833 718.5,861.5C 718.829,748.126 718.496,634.793 717.5,521.5 Z"/></g>
<g><path style="opacity:0.305" fill="#3e70c1" d="M 3516.5,594.5 C 3516.5,618.167 3516.5,641.833 3516.5,665.5C 3726.5,665.5 3936.5,665.5 4146.5,665.5C 4146.83,730.669 4146.5,795.669 4145.5,860.5C 4145.5,795.833 4145.5,731.167 4145.5,666.5C 4096.17,666.5 4046.83,666.5 3997.5,666.5C 3939.5,666.5 3881.5,666.5 3823.5,666.5C 3775.83,666.5 3728.17,666.5 3680.5,666.5C 3625.5,666.5 3570.5,666.5 3515.5,666.5C 3515.17,642.328 3515.5,618.328 3516.5,594.5 Z"/></g>
<g><path style="opacity:0.305" fill="#3e70c1" d="M 5722.5,594.5 C 5722.5,618.167 5722.5,641.833 5722.5,665.5C 5932.5,665.5 6142.5,665.5 6352.5,665.5C 6352.83,730.669 6352.5,795.669 6351.5,860.5C 6351.83,795.665 6351.5,730.998 6350.5,666.5C 6222.17,666.5 6093.83,666.5 5965.5,666.5C 5965.17,666.5 5964.83,666.5 5964.5,666.5C 5895.83,666.5 5827.17,666.5 5758.5,666.5C 5746.17,666.5 5733.83,666.5 5721.5,666.5C 5721.17,642.328 5721.5,618.328 5722.5,594.5 Z"/></g>
<g><path style="opacity:0.996" fill="#0d77d3" d="M 3680.5,666.5 C 3728.17,666.5 3775.83,666.5 3823.5,666.5C 3823.5,731.5 3823.5,796.5 3823.5,861.5C 3775.83,861.5 3728.17,861.5 3680.5,861.5C 3680.5,796.5 3680.5,731.5 3680.5,666.5 Z"/></g>
<g><path style="opacity:0.996" fill="#0e7ad5" d="M 3823.5,666.5 C 3881.5,666.5 3939.5,666.5 3997.5,666.5C 3997.5,731.5 3997.5,796.5 3997.5,861.5C 3939.5,861.5 3881.5,861.5 3823.5,861.5C 3823.5,796.5 3823.5,731.5 3823.5,666.5 Z"/></g>
<g><path style="opacity:0.996" fill="#0e7dd8" d="M 3997.5,666.5 C 4046.83,666.5 4096.17,666.5 4145.5,666.5C 4145.5,731.167 4145.5,795.833 4145.5,860.5C 4096.34,861.499 4047,861.832 3997.5,861.5C 3997.5,796.5 3997.5,731.5 3997.5,666.5 Z"/></g>
<g><path style="opacity:0.996" fill="#159ff5" d="M 5758.5,666.5 C 5827.17,666.5 5895.83,666.5 5964.5,666.5C 5964.5,731.5 5964.5,796.5 5964.5,861.5C 5895.83,861.5 5827.17,861.5 5758.5,861.5C 5758.5,796.5 5758.5,731.5 5758.5,666.5 Z"/></g>
<g><path style="opacity:0.439" fill="#097074" d="M 109.5,859.5 C 211.665,860.499 313.999,860.833 416.5,860.5C 313.999,861.832 211.333,861.832 108.5,860.5C 108.624,859.893 108.957,859.56 109.5,859.5 Z"/></g>
<g><path style="opacity:0.439" fill="#97667b" d="M 5964.5,666.5 C 5964.83,666.5 5965.17,666.5 5965.5,666.5C 5965.5,731.167 5965.5,795.833 5965.5,860.5C 6093.83,860.5 6222.17,860.5 6350.5,860.5C 6350.5,795.833 6350.5,731.167 6350.5,666.5C 6351.5,730.998 6351.83,795.665 6351.5,860.5C 6222.67,861.5 6093.67,861.833 5964.5,861.5C 5964.5,796.5 5964.5,731.5 5964.5,666.5 Z"/></g>
<g><path style="opacity:1" fill="#da4436" d="M 5965.5,666.5 C 6093.83,666.5 6222.17,666.5 6350.5,666.5C 6350.5,731.167 6350.5,795.833 6350.5,860.5C 6222.17,860.5 6093.83,860.5 5965.5,860.5C 5965.5,795.833 5965.5,731.167 5965.5,666.5 Z"/></g>
<g><path style="opacity:1" fill="#0c86d0" d="M 2632.5,1342.5 C 2721.51,1338.82 2787.84,1375.49 2831.5,1452.5C 2864.51,1392.03 2915.18,1356.19 2983.5,1345C 3068.37,1337.69 3133.87,1369.52 3180,1440.5C 3195.94,1467.33 3205.28,1496.33 3208,1527.5C 3208.5,1600.83 3208.67,1674.17 3208.5,1747.5C 3194.5,1747.5 3180.5,1747.5 3166.5,1747.5C 3166.67,1679.17 3166.5,1610.83 3166,1542.5C 3162.29,1478.53 3132.45,1431.36 3076.5,1401C 3012.33,1374.08 2953.99,1383.42 2901.5,1429C 2869.61,1460.31 2853.11,1498.47 2852,1543.5C 2851.5,1611.5 2851.33,1679.5 2851.5,1747.5C 2837.83,1747.5 2824.17,1747.5 2810.5,1747.5C 2810.67,1679.17 2810.5,1610.83 2810,1542.5C 2806.07,1474.62 2773.57,1426.12 2712.5,1397C 2644.2,1373.12 2584.7,1386.95 2534,1438.5C 2508.6,1468.36 2495.6,1503.02 2495,1542.5C 2494.5,1610.83 2494.33,1679.17 2494.5,1747.5C 2480.5,1747.5 2466.5,1747.5 2452.5,1747.5C 2452.33,1674.5 2452.5,1601.5 2453,1528.5C 2460.08,1455.15 2495.58,1400.65 2559.5,1365C 2582.66,1353.3 2606.99,1345.8 2632.5,1342.5 Z"/></g>
<g><path style="opacity:1" fill="#0c87d1" d="M 4984.5,1342.5 C 4984.5,1356.17 4984.5,1369.83 4984.5,1383.5C 4912.33,1383.17 4840.33,1383.5 4768.5,1384.5C 4705.79,1393.39 4661.62,1426.73 4636,1484.5C 4631.91,1495.28 4628.74,1506.28 4626.5,1517.5C 4625.54,1519.26 4625.21,1521.26 4625.5,1523.5C 4745.17,1523.5 4864.83,1523.5 4984.5,1523.5C 4984.5,1536.83 4984.5,1550.17 4984.5,1563.5C 4906.66,1563.17 4829,1563.5 4751.5,1564.5C 4709.83,1564.5 4668.17,1564.5 4626.5,1564.5C 4636.53,1626.37 4670.53,1669.2 4728.5,1693C 4745.61,1699.29 4763.27,1702.62 4781.5,1703C 4849.5,1703.5 4917.5,1703.67 4985.5,1703.5C 4985.5,1717.17 4985.5,1730.83 4985.5,1744.5C 4911.5,1744.67 4837.5,1744.5 4763.5,1744C 4687.34,1733.81 4632.51,1694.31 4599,1625.5C 4580.41,1580.21 4577.41,1533.88 4590,1486.5C 4612.17,1417.67 4657.67,1372.17 4726.5,1350C 4738.64,1346.64 4750.97,1344.31 4763.5,1343C 4837.17,1342.5 4910.83,1342.33 4984.5,1342.5 Z"/></g>
<g><path style="opacity:1" fill="#0c86d1" d="M 5653.5,1342.5 C 5737.48,1338.57 5801.65,1371.9 5846,1442.5C 5860.37,1467.66 5869.04,1494.66 5872,1523.5C 5872.5,1597.83 5872.67,1672.17 5872.5,1746.5C 5858.83,1746.5 5845.17,1746.5 5831.5,1746.5C 5831.67,1678.5 5831.5,1610.5 5831,1542.5C 5827.69,1480.67 5799.52,1434.17 5746.5,1403C 5683.45,1373.4 5624.78,1380.4 5570.5,1424C 5537.27,1453.63 5519.44,1490.8 5517,1535.5C 5516.5,1606.17 5516.33,1676.83 5516.5,1747.5C 5502.5,1747.5 5488.5,1747.5 5474.5,1747.5C 5474.33,1673.5 5474.5,1599.5 5475,1525.5C 5482.68,1455.22 5516.85,1402.39 5577.5,1367C 5601.5,1354.28 5626.83,1346.11 5653.5,1342.5 Z"/></g>
<g><path style="opacity:0.937" fill="#0968a2" d="M 1525.5,1385.5 C 1525.5,1371.83 1525.5,1358.17 1525.5,1344.5C 1415.17,1344.5 1304.83,1344.5 1194.5,1344.5C 1194.5,1358.17 1194.5,1371.83 1194.5,1385.5C 1193.5,1371.68 1193.17,1357.68 1193.5,1343.5C 1304.5,1343.5 1415.5,1343.5 1526.5,1343.5C 1526.83,1357.68 1526.5,1371.68 1525.5,1385.5 Z"/></g>
<g><path style="opacity:0.937" fill="#096aa5" d="M 4521.5,1344.5 C 4535.32,1343.5 4549.32,1343.17 4563.5,1343.5C 4563.83,1353.01 4563.49,1362.35 4562.5,1371.5C 4562.5,1362.5 4562.5,1353.5 4562.5,1344.5C 4548.83,1344.5 4535.17,1344.5 4521.5,1344.5 Z"/></g>
<g><path style="opacity:0.937" fill="#0968a2" d="M 5338.5,1385.5 C 5338.5,1371.83 5338.5,1358.17 5338.5,1344.5C 5228.17,1344.5 5117.83,1344.5 5007.5,1344.5C 5007.5,1358.17 5007.5,1371.83 5007.5,1385.5C 5006.5,1371.68 5006.17,1357.68 5006.5,1343.5C 5117.5,1343.5 5228.5,1343.5 5339.5,1343.5C 5339.83,1357.68 5339.5,1371.68 5338.5,1385.5 Z"/></g>
<g><path style="opacity:1" fill="#0c86d0" d="M 126.5,1343.5 C 199.501,1343.33 272.501,1343.5 345.5,1344C 409.945,1351.29 460.445,1381.45 497,1434.5C 533.484,1494.2 539.484,1556.86 515,1622.5C 482.578,1694.65 427.078,1736.15 348.5,1747C 274.512,1748.43 200.512,1748.93 126.5,1748.5C 126.5,1613.5 126.5,1478.5 126.5,1343.5 Z M 168.5,1385.5 C 227.515,1385.07 286.515,1385.57 345.5,1387C 405.528,1395.91 448.361,1427.74 474,1482.5C 497.171,1542.97 488.838,1598.64 449,1649.5C 419.044,1683.06 381.544,1701.56 336.5,1705C 280.501,1705.5 224.501,1705.67 168.5,1705.5C 168.5,1598.83 168.5,1492.17 168.5,1385.5 Z"/></g>
<g><path style="opacity:1" fill="#0d87d3" d="M 575.5,1344.5 C 589.167,1344.5 602.833,1344.5 616.5,1344.5C 616.5,1478.83 616.5,1613.17 616.5,1747.5C 602.833,1747.5 589.167,1747.5 575.5,1747.5C 575.5,1613.17 575.5,1478.83 575.5,1344.5 Z"/></g>
<g><path style="opacity:0.937" fill="#096ca9" d="M 575.5,1344.5 C 589.323,1343.5 603.323,1343.17 617.5,1343.5C 617.833,1478.33 617.5,1613 616.5,1747.5C 616.5,1613.17 616.5,1478.83 616.5,1344.5C 602.833,1344.5 589.167,1344.5 575.5,1344.5 Z"/></g>
<g><path style="opacity:1" fill="#0c86d0" d="M 784.5,1566.5 C 784.5,1552.83 784.5,1539.17 784.5,1525.5C 878.167,1525.5 971.833,1525.5 1065.5,1525.5C 1065.5,1599.83 1065.5,1674.17 1065.5,1748.5C 1051.83,1748.5 1038.17,1748.5 1024.5,1748.5C 1024.67,1722.16 1024.5,1695.83 1024,1669.5C 973.029,1731.05 907.863,1756.22 828.5,1745C 756.066,1729.89 705.232,1688.39 676,1620.5C 648.949,1542.78 661.615,1472.44 714,1409.5C 771.694,1350.61 840.694,1331.28 921,1351.5C 972.075,1367.09 1011.24,1397.75 1038.5,1443.5C 1027.3,1450.53 1015.96,1457.37 1004.5,1464C 1003.5,1464.67 1002.5,1464.67 1001.5,1464C 969.336,1414.49 923.503,1388.32 864,1385.5C 798.159,1388.74 750.159,1419.41 720,1477.5C 693.949,1539.47 701.616,1596.8 743,1649.5C 792.464,1701.99 851.631,1717.16 920.5,1695C 977.822,1670.84 1011.49,1628 1021.5,1566.5C 942.5,1566.5 863.5,1566.5 784.5,1566.5 Z"/></g>
<g><path style="opacity:1" fill="#0d87d3" d="M 1118.5,1344.5 C 1132.17,1344.5 1145.83,1344.5 1159.5,1344.5C 1159.5,1478.83 1159.5,1613.17 1159.5,1747.5C 1145.83,1747.5 1132.17,1747.5 1118.5,1747.5C 1118.5,1613.17 1118.5,1478.83 1118.5,1344.5 Z"/></g>
<g><path style="opacity:0.937" fill="#096ca9" d="M 1118.5,1344.5 C 1132.32,1343.5 1146.32,1343.17 1160.5,1343.5C 1160.83,1478.33 1160.5,1613 1159.5,1747.5C 1159.5,1613.17 1159.5,1478.83 1159.5,1344.5C 1145.83,1344.5 1132.17,1344.5 1118.5,1344.5 Z"/></g>
<g><path style="opacity:1" fill="#0c86d1" d="M 1525.5,1385.5 C 1460.5,1385.5 1395.5,1385.5 1330.5,1385.5C 1329.44,1427.16 1329.27,1468.83 1330,1510.5C 1330.11,1534.39 1332.44,1558.06 1337,1581.5C 1346.65,1624.34 1370.48,1656.5 1408.5,1678C 1445.3,1697.87 1484.64,1707.03 1526.5,1705.5C 1526.26,1719.53 1526.59,1733.53 1527.5,1747.5C 1465.17,1749.33 1408.84,1732.16 1358.5,1696C 1318.15,1660.8 1295.65,1616.3 1291,1562.5C 1289.34,1545.87 1288.34,1529.21 1288,1512.5C 1287.32,1470.16 1287.49,1427.83 1288.5,1385.5C 1257.17,1385.5 1225.83,1385.5 1194.5,1385.5C 1194.5,1371.83 1194.5,1358.17 1194.5,1344.5C 1304.83,1344.5 1415.17,1344.5 1525.5,1344.5C 1525.5,1358.17 1525.5,1371.83 1525.5,1385.5 Z"/></g>
<g><path style="opacity:1" fill="#0c86d0" d="M 2007.5,1343.5 C 2021.52,1343.3 2035.52,1343.63 2049.5,1344.5C 2049.32,1383 2048.98,1421.5 2048.5,1460C 2048.49,1484.84 2048.99,1509.68 2050,1534.5C 2051.56,1615.66 2090.06,1670.49 2165.5,1699C 2180.46,1703.79 2195.8,1705.95 2211.5,1705.5C 2211.5,1719.5 2211.5,1733.5 2211.5,1747.5C 2163.38,1747.3 2120.72,1732.13 2083.5,1702C 2037.02,1663.21 2012.19,1613.38 2009,1552.5C 2007.09,1522.03 2006.26,1491.53 2006.5,1461C 2006.98,1421.83 2007.31,1382.67 2007.5,1343.5 Z"/></g>
<g><path style="opacity:1" fill="#0c86d1" d="M 3709.5,1343.5 C 3784.5,1343.33 3859.5,1343.5 3934.5,1344C 3976.77,1345.76 4015.77,1357.76 4051.5,1380C 4093.6,1411.37 4113.93,1453.54 4112.5,1506.5C 4113.81,1553.77 4097.48,1593.6 4063.5,1626C 4054.85,1632.66 4045.85,1638.83 4036.5,1644.5C 4061.14,1654.98 4080.31,1671.65 4094,1694.5C 4102.37,1711.17 4106.2,1728.84 4105.5,1747.5C 4091.83,1747.67 4078.16,1747.5 4064.5,1747C 4062.75,1716.58 4047.75,1695.58 4019.5,1684C 3997.32,1675.36 3974.32,1670.7 3950.5,1670C 3884.17,1669.5 3817.83,1669.33 3751.5,1669.5C 3751.5,1695.5 3751.5,1721.5 3751.5,1747.5C 3737.5,1747.5 3723.5,1747.5 3709.5,1747.5C 3709.5,1612.83 3709.5,1478.17 3709.5,1343.5 Z M 3751.5,1385.5 C 3813.18,1385.09 3874.84,1385.59 3936.5,1387C 3965.1,1388.57 3992.1,1395.9 4017.5,1409C 4053.01,1431.49 4070.67,1463.99 4070.5,1506.5C 4069.23,1570.53 4037.23,1609.03 3974.5,1622C 3962.61,1624.49 3950.61,1626.15 3938.5,1627C 3915.34,1627.98 3892.18,1628.48 3869,1628.5C 3829.84,1627.91 3790.67,1627.57 3751.5,1627.5C 3751.5,1546.83 3751.5,1466.17 3751.5,1385.5 Z"/></g>
<g><path style="opacity:1" fill="#0c86d1" d="M 4160.5,1344.5 C 4174.17,1344.5 4187.83,1344.5 4201.5,1344.5C 4201.5,1418.17 4201.5,1491.83 4201.5,1565.5C 4226.01,1565.83 4250.34,1565.5 4274.5,1564.5C 4305.98,1565.02 4337.32,1563.19 4368.5,1559C 4455.59,1542.74 4505.09,1490.58 4517,1402.5C 4519.55,1383.23 4521.05,1363.9 4521.5,1344.5C 4535.17,1344.5 4548.83,1344.5 4562.5,1344.5C 4562.5,1353.5 4562.5,1362.5 4562.5,1371.5C 4561.62,1418.34 4550.12,1462.34 4528,1503.5C 4505.97,1539.86 4475.47,1566.69 4436.5,1584C 4473.76,1596.87 4504.59,1618.7 4529,1649.5C 4550.23,1679.36 4560.73,1712.69 4560.5,1749.5C 4546.48,1749.83 4532.48,1749.5 4518.5,1748.5C 4516.03,1699.03 4493.36,1662.19 4450.5,1638C 4417.93,1620.86 4383.27,1610.86 4346.5,1608C 4333.32,1607.1 4320.15,1606.27 4307,1605.5C 4279.2,1606.49 4251.37,1606.82 4223.5,1606.5C 4216.17,1606.5 4208.83,1606.5 4201.5,1606.5C 4201.5,1653.5 4201.5,1700.5 4201.5,1747.5C 4187.83,1747.5 4174.17,1747.5 4160.5,1747.5C 4160.5,1613.17 4160.5,1478.83 4160.5,1344.5 Z"/></g>
<g><path style="opacity:0.937" fill="#096aa6" d="M 4160.5,1344.5 C 4174.32,1343.5 4188.32,1343.17 4202.5,1343.5C 4202.5,1417.17 4202.5,1490.83 4202.5,1564.5C 4226.5,1564.5 4250.5,1564.5 4274.5,1564.5C 4250.34,1565.5 4226.01,1565.83 4201.5,1565.5C 4201.5,1491.83 4201.5,1418.17 4201.5,1344.5C 4187.83,1344.5 4174.17,1344.5 4160.5,1344.5 Z"/></g>
<g><path style="opacity:1" fill="#0c86d1" d="M 5338.5,1385.5 C 5273.5,1385.5 5208.5,1385.5 5143.5,1385.5C 5142.44,1427.16 5142.27,1468.83 5143,1510.5C 5143.11,1534.39 5145.44,1558.06 5150,1581.5C 5159.65,1624.34 5183.48,1656.5 5221.5,1678C 5258.3,1697.87 5297.64,1707.03 5339.5,1705.5C 5339.26,1719.53 5339.59,1733.53 5340.5,1747.5C 5278.17,1749.33 5221.84,1732.16 5171.5,1696C 5131.15,1660.8 5108.65,1616.3 5104,1562.5C 5102.34,1545.87 5101.34,1529.21 5101,1512.5C 5100.32,1470.16 5100.49,1427.83 5101.5,1385.5C 5070.17,1385.5 5038.83,1385.5 5007.5,1385.5C 5007.5,1371.83 5007.5,1358.17 5007.5,1344.5C 5117.83,1344.5 5228.17,1344.5 5338.5,1344.5C 5338.5,1358.17 5338.5,1371.83 5338.5,1385.5 Z"/></g>
<g><path style="opacity:1" fill="#0d87d3" d="M 5380.5,1344.5 C 5394.17,1344.5 5407.83,1344.5 5421.5,1344.5C 5421.5,1478.83 5421.5,1613.17 5421.5,1747.5C 5407.83,1747.5 5394.17,1747.5 5380.5,1747.5C 5380.5,1613.17 5380.5,1478.83 5380.5,1344.5 Z"/></g>
<g><path style="opacity:0.937" fill="#096ca9" d="M 5380.5,1344.5 C 5394.32,1343.5 5408.32,1343.17 5422.5,1343.5C 5422.83,1478.33 5422.5,1613 5421.5,1747.5C 5421.5,1613.17 5421.5,1478.83 5421.5,1344.5C 5407.83,1344.5 5394.17,1344.5 5380.5,1344.5 Z"/></g>
<g><path style="opacity:1" fill="#0c86d0" d="M 6034.5,1566.5 C 6034.5,1552.83 6034.5,1539.17 6034.5,1525.5C 6128.17,1525.5 6221.83,1525.5 6315.5,1525.5C 6315.5,1599.83 6315.5,1674.17 6315.5,1748.5C 6301.83,1748.5 6288.17,1748.5 6274.5,1748.5C 6274.67,1722.16 6274.5,1695.83 6274,1669.5C 6223.03,1731.05 6157.86,1756.22 6078.5,1745C 6006.07,1729.89 5955.23,1688.39 5926,1620.5C 5898.95,1542.78 5911.62,1472.44 5964,1409.5C 6021.69,1350.61 6090.69,1331.28 6171,1351.5C 6222.08,1367.09 6261.24,1397.75 6288.5,1443.5C 6277.3,1450.53 6265.96,1457.37 6254.5,1464C 6253.5,1464.67 6252.5,1464.67 6251.5,1464C 6219.34,1414.49 6173.5,1388.32 6114,1385.5C 6048.16,1388.74 6000.16,1419.41 5970,1477.5C 5943.95,1539.47 5951.62,1596.8 5993,1649.5C 6042.46,1701.99 6101.63,1717.16 6170.5,1695C 6227.82,1670.84 6261.49,1628 6271.5,1566.5C 6192.5,1566.5 6113.5,1566.5 6034.5,1566.5 Z"/></g>
<g><path style="opacity:1" fill="#0c86d1" d="M 1740.5,1345.5 C 1816.87,1340.78 1878.37,1368.45 1925,1428.5C 1945.79,1457.86 1958.12,1490.53 1962,1526.5C 1962.5,1600.17 1962.67,1673.83 1962.5,1747.5C 1948.5,1747.5 1934.5,1747.5 1920.5,1747.5C 1920.5,1720.83 1920.5,1694.17 1920.5,1667.5C 1814.17,1667.5 1707.83,1667.5 1601.5,1667.5C 1601.5,1694.17 1601.5,1720.83 1601.5,1747.5C 1587.5,1747.5 1573.5,1747.5 1559.5,1747.5C 1559.33,1674.5 1559.5,1601.5 1560,1528.5C 1570.73,1445.79 1614.56,1388.63 1691.5,1357C 1707.57,1351.42 1723.9,1347.59 1740.5,1345.5 Z M 1751.5,1387.5 C 1824.47,1387.38 1876.64,1420.05 1908,1485.5C 1914.84,1502.18 1918.84,1519.51 1920,1537.5C 1920.5,1566.83 1920.67,1596.16 1920.5,1625.5C 1814.17,1625.5 1707.83,1625.5 1601.5,1625.5C 1601.33,1598.5 1601.5,1571.5 1602,1544.5C 1606.05,1476.85 1638.55,1428.68 1699.5,1400C 1716.36,1393.28 1733.69,1389.12 1751.5,1387.5 Z"/></g>
<g><path style="opacity:1" fill="#0c86d1" d="M 3434.5,1345.5 C 3510.87,1340.78 3572.37,1368.45 3619,1428.5C 3639.79,1457.86 3652.12,1490.53 3656,1526.5C 3656.5,1600.17 3656.67,1673.83 3656.5,1747.5C 3642.5,1747.5 3628.5,1747.5 3614.5,1747.5C 3614.5,1720.83 3614.5,1694.17 3614.5,1667.5C 3508.17,1667.5 3401.83,1667.5 3295.5,1667.5C 3295.5,1694.17 3295.5,1720.83 3295.5,1747.5C 3281.5,1747.5 3267.5,1747.5 3253.5,1747.5C 3253.33,1674.5 3253.5,1601.5 3254,1528.5C 3264.73,1445.79 3308.56,1388.63 3385.5,1357C 3401.57,1351.42 3417.9,1347.59 3434.5,1345.5 Z M 3445.5,1387.5 C 3518.47,1387.38 3570.64,1420.05 3602,1485.5C 3608.84,1502.18 3612.84,1519.51 3614,1537.5C 3614.5,1566.83 3614.67,1596.16 3614.5,1625.5C 3508.17,1625.5 3401.83,1625.5 3295.5,1625.5C 3295.33,1598.5 3295.5,1571.5 3296,1544.5C 3300.05,1476.85 3332.55,1428.68 3393.5,1400C 3410.36,1393.28 3427.69,1389.12 3445.5,1387.5 Z"/></g>
<g><path style="opacity:0.439" fill="#074e79" d="M 4984.5,1342.5 C 4985.5,1356.32 4985.83,1370.32 4985.5,1384.5C 4913.17,1384.5 4840.83,1384.5 4768.5,1384.5C 4840.33,1383.5 4912.33,1383.17 4984.5,1383.5C 4984.5,1369.83 4984.5,1356.17 4984.5,1342.5 Z"/></g>
<g><path style="opacity:0.937" fill="#096ca9" d="M 4626.5,1517.5 C 4626.5,1519.17 4626.5,1520.83 4626.5,1522.5C 4745.83,1522.5 4865.17,1522.5 4984.5,1522.5C 4984.5,1522.83 4984.5,1523.17 4984.5,1523.5C 4864.83,1523.5 4745.17,1523.5 4625.5,1523.5C 4625.21,1521.26 4625.54,1519.26 4626.5,1517.5 Z"/></g>
<g><path style="opacity:0.937" fill="#096aa6" d="M 1065.5,1525.5 C 971.833,1525.5 878.167,1525.5 784.5,1525.5C 784.5,1539.17 784.5,1552.83 784.5,1566.5C 783.504,1552.68 783.171,1538.68 783.5,1524.5C 877.668,1524.17 971.668,1524.5 1065.5,1525.5 Z"/></g>
<g><path style="opacity:0.937" fill="#096aa6" d="M 6315.5,1525.5 C 6221.83,1525.5 6128.17,1525.5 6034.5,1525.5C 6034.5,1539.17 6034.5,1552.83 6034.5,1566.5C 6033.5,1552.68 6033.17,1538.68 6033.5,1524.5C 6127.67,1524.17 6221.67,1524.5 6315.5,1525.5 Z"/></g>
<g><path style="opacity:0.753" fill="#095e93" d="M 4984.5,1522.5 C 4985.5,1536.32 4985.83,1550.32 4985.5,1564.5C 4907.5,1564.5 4829.5,1564.5 4751.5,1564.5C 4829,1563.5 4906.66,1563.17 4984.5,1563.5C 4984.5,1550.17 4984.5,1536.83 4984.5,1523.5C 4984.5,1523.17 4984.5,1522.83 4984.5,1522.5 Z"/></g>
<g><path style="opacity:0.937" fill="#0969a4" d="M 4223.5,1606.5 C 4216.69,1607.49 4209.69,1607.82 4202.5,1607.5C 4202.83,1654.34 4202.5,1701 4201.5,1747.5C 4201.5,1700.5 4201.5,1653.5 4201.5,1606.5C 4208.83,1606.5 4216.17,1606.5 4223.5,1606.5 Z"/></g>
</svg>
